HIERARCHY
ROOT Hips
{
	OFFSET -3.958830 18.904000 13.208200
	CHANNELS 6 Xposition Yposition Zposition Zrotation Yrotation Xrotation 
	JOINT LHipJoint
	{
		OFFSET 0.000000 0.000000 0.000000
		CHANNELS 3 Zrotation Yrotation Xrotation
		JOINT LeftUpLeg
		{
			OFFSET 1.800000 -1.400000 0.085000
			CHANNELS 3 Zrotation Yrotation Xrotation
			JOINT LeftLeg
			{
				OFFSET 2.215000 -6.000000 0.000000
				CHANNELS 3 Zrotation Yrotation Xrotation
				JOINT LeftFoot
				{
					OFFSET 2.500000 -6.900000 0.000000
					CHANNELS 3 Zrotation Yrotation Xrotation
					JOINT LeftToeBase
					{
						OFFSET 0.200000 -0.500000 1.950000
						CHANNELS 3 Zrotation Yrotation Xrotation
						End Site
						{
							OFFSET 0.000000 0.000000 0.000000
						}
					}
				}
			}
		}
	}
	JOINT RHipJoint
	{
		OFFSET 0.000000 0.000000 0.000000
		CHANNELS 3 Zrotation Yrotation Xrotation
		JOINT RightUpLeg
		{
			OFFSET -1.800000 -1.400000 0.085000
			CHANNELS 3 Zrotation Yrotation Xrotation
			JOINT RightLeg
			{
				OFFSET -2.215000 -6.000000 0.000000
				CHANNELS 3 Zrotation Yrotation Xrotation
				JOINT RightFoot
				{
					OFFSET -2.500000 -6.900000 0.000000
					CHANNELS 3 Zrotation Yrotation Xrotation
					JOINT RightToeBase
					{
						OFFSET -0.200000 -0.500000 1.950000
						CHANNELS 3 Zrotation Yrotation Xrotation
						End Site
						{
							OFFSET 0.000000 0.000000 0.000000
						}
					}
				}
			}
		}
	}
	JOINT LowerBack
	{
		OFFSET 0.000000 0.000000 0.000000
		CHANNELS 3 Zrotation Yrotation Xrotation
		JOINT Spine
		{
			OFFSET -0.087000 1.940000 -0.288900
			CHANNELS 3 Zrotation Yrotation Xrotation
			JOINT Spine1
			{
				OFFSET 0.000000 1.950000 0.060000
				CHANNELS 3 Zrotation Yrotation Xrotation
				JOINT Neck
				{
					OFFSET 0.000000 0.000000 0.000000
					CHANNELS 3 Zrotation Yrotation Xrotation
					JOINT Neck1
					{
						OFFSET 0.000000 1.600000 0.340000
						CHANNELS 3 Zrotation Yrotation Xrotation
						JOINT Head
						{
							OFFSET 0.000000 1.667000 -0.240000
							CHANNELS 3 Zrotation Yrotation Xrotation
							End Site
							{
								OFFSET 0.000000 0.000000 0.000000
							}
						}
					}
				}
				JOINT LeftShoulder
				{
					OFFSET 0.000000 0.000000 0.000000
					CHANNELS 3 Zrotation Yrotation Xrotation
					JOINT LeftArm
					{
						OFFSET 2.700000 1.550000 -0.730000
						CHANNELS 3 Zrotation Yrotation Xrotation
						JOINT LeftForeArm
						{
							OFFSET 5.450000 0.000000 0.000000
							CHANNELS 3 Zrotation Yrotation Xrotation
							JOINT LeftHand
							{
								OFFSET 3.450000 0.000000 0.000000
								CHANNELS 3 Zrotation Yrotation Xrotation
								JOINT LeftHandIndex1
								{
									OFFSET 0.750000 0.000000 0.000000
									CHANNELS 3 Zrotation Yrotation Xrotation
									End Site
									{
										OFFSET 0.000000 0.000000 0.000000
									}
								}
							}
						}
					}
				}
				JOINT RightShoulder
				{
					OFFSET 0.000000 0.000000 0.000000
					CHANNELS 3 Zrotation Yrotation Xrotation
					JOINT RightArm
					{
						OFFSET -2.700000 1.550000 -0.730000
						CHANNELS 3 Zrotation Yrotation Xrotation
						JOINT RightForeArm
						{
							OFFSET -5.450000 0.000000 0.000000
							CHANNELS 3 Zrotation Yrotation Xrotation
							JOINT RightHand
							{
								OFFSET -3.450000 0.000000 0.000000
								CHANNELS 3 Zrotation Yrotation Xrotation
								JOINT RightHandIndex1
								{
									OFFSET -0.750000 0.000000 0.000000
									CHANNELS 3 Zrotation Yrotation Xrotation
									End Site
									{
										OFFSET 0.000000 0.000000 0.000000
									}
								}
							}
						}
					}
				}
			}
		}
	}
}
MOTION
Frames: 4
Frame Time: 0.016667
0.585740 16.901110 -2.303400 -3.076587 -5.504382 6.476491 -15.330899 12.842640 3.064323 2.454736 -1.311082 -8.279369 -10.686633 4.672232 3.657274 -0.618596 4.512325 3.546408 0.576280 -0.142550 0.407200 18.082868 -10.552069 2.732868 -22.094397 0.662995 -15.903143 2.207042 -3.593410 1.048811 -0.441259 -3.595190 3.303099 -0.035760 0.602290 0.565260 -3.065166 -1.426370 -7.344478 2.263679 0.940633 4.119500 1.123169 0.959525 1.852876 2.180402 -1.008213 -7.668987 -2.501267 4.450920 31.446135 -2.833840 4.262430 -9.761840 -29.772717 -8.703057 3.057298 -51.684127 -5.063099 -1.880722 -8.634895 -18.122455 -1.173492 -3.931995 2.861764 0.876600 0.338170 -0.094500 0.464540 26.323049 11.198830 4.636808 53.007627 6.934054 -3.270272 5.550592 13.704097 -0.280933 1.822634 -1.408909 -0.317220 0.290710 -0.022090 -0.340150 
0.583970 16.902890 -2.304280 -3.105767 -5.302640 6.460569 -15.332644 12.856877 3.063121 2.515317 -1.315908 -8.352117 -10.715731 4.702295 3.811439 -0.614061 4.514946 3.537260 0.575710 -0.138940 0.406100 18.078289 -10.549434 2.734121 -22.055653 0.662126 -15.814747 2.351664 -3.624399 1.073073 -0.448405 -3.597033 3.297522 -0.040960 0.597620 0.578340 -3.056964 -1.455565 -7.348483 2.316644 0.877820 4.207470 1.146282 0.896174 1.650697 2.202637 -1.020553 -7.558539 -2.535331 4.362314 31.390800 -2.915970 4.200190 -10.292890 -29.913783 -8.423145 2.918810 -51.700729 -5.107585 -1.819105 -8.811951 -18.039891 -1.149729 -3.938065 2.861527 0.878510 0.336200 -0.083560 0.458230 26.415960 10.898948 4.521862 52.878394 6.884879 -3.263352 5.656785 13.632902 -0.253697 1.825776 -1.398733 -0.304510 0.284940 -0.016040 -0.336450 
0.582330 16.904010 -2.306500 -2.887058 -5.154484 6.397515 -15.351048 12.874893 3.059879 2.336521 -1.315287 -8.428426 -10.702784 4.741466 4.078593 -0.608686 4.503664 3.535661 0.574650 -0.128340 0.392350 18.059890 -10.534919 2.735206 -22.284731 0.628487 -15.805193 2.505952 -3.671299 1.144001 -0.451972 -3.613915 3.294895 -0.040350 0.597970 0.582490 -3.004451 -1.511224 -7.348678 1.842572 0.876251 4.266160 1.361545 0.885651 1.545326 2.177417 -0.960987 -7.508423 -2.452698 4.352959 31.431562 -2.846880 4.193010 -10.552470 -29.989394 -8.312170 2.872063 -51.743489 -5.128179 -1.818018 -8.882750 -18.093566 -1.131206 -3.940232 2.862471 0.874370 0.338440 -0.078390 0.460940 26.593792 10.755249 4.458172 52.667733 6.821155 -3.274647 5.763847 13.619149 -0.233578 1.821662 -1.392949 -0.294970 0.284540 -0.013140 -0.329460 
0.583820 16.901950 -2.308750 -2.835608 -4.990407 6.332155 -15.354614 12.892573 3.059594 2.311429 -1.313669 -8.477354 -10.678981 4.769455 4.265312 -0.602491 4.497709 3.533932 0.572140 -0.121490 0.379870 18.053426 -10.546695 2.723006 -22.382283 0.593614 -15.848715 2.599539 -3.721447 1.424015 -0.449820 -3.615673 3.296460 -0.037860 0.597330 0.583790 -2.990109 -1.529288 -7.345055 1.722521 0.858728 4.316956 1.376047 0.863608 1.577274 2.193699 -0.892135 -7.539695 -2.337934 4.337289 31.434214 -2.831180 4.209230 -10.568370 -30.062440 -8.432979 2.946174 -51.758732 -5.055308 -1.940432 -8.823966 -18.396936 -1.131060 -3.938225 2.868183 0.867260 0.340810 -0.075360 0.465320 26.646406 10.822334 4.467819 52.676587 6.827033 -3.295783 5.558805 13.608709 -0.250140 1.819597 -1.393139 -0.289140 0.283610 -0.012530 -0.324060 
